<svg xmlns="http://www.w3.org/2000/svg" xmlns:xlink="http://www.w3.org/1999/xlink" viewBox="0 0 500 500"><defs><style>.cls-1{fill:#fff;stroke-width:2px;}.cls-1,.cls-3,.cls-4{stroke:#fff;}.cls-1,.cls-3{stroke-miterlimit:10;}.cls-2{opacity:0.9;fill:url(#linear-gradient);}.cls-3,.cls-4{fill:none;stroke-width:8px;}.cls-3{stroke-linecap:round;}.cls-4{stroke-linejoin:round;}</style><linearGradient id="linear-gradient" x1="250" y1="132.22" x2="250" y2="263.05" gradientUnits="userSpaceOnUse"><stop offset="0" stop-color="#ff8f00"/><stop offset="1" stop-color="#ff4081"/></linearGradient></defs><title>full white</title><g id="FULL_WHITE" data-name="FULL WHITE"><g id="TEXT"><path class="cls-1" d="M142,392.67a8.84,8.84,0,0,1-4.69,4.69,8.59,8.59,0,0,1-3.43.69H131.3a8.68,8.68,0,0,1-3.44-.69,8.8,8.8,0,0,1-4.7-4.69,8.58,8.58,0,0,1-.69-3.43V370a8.58,8.58,0,0,1,.69-3.43,8.8,8.8,0,0,1,4.7-4.69,8.68,8.68,0,0,1,3.44-.69h2.55a8.59,8.59,0,0,1,3.43.69,8.84,8.84,0,0,1,4.69,4.69,8.59,8.59,0,0,1,.69,3.43v19.25A8.59,8.59,0,0,1,142,392.67ZM139.42,370a5.56,5.56,0,0,0-.45-2.24,5.76,5.76,0,0,0-3-3,5.56,5.56,0,0,0-2.24-.45h-2.25a5.56,5.56,0,0,0-2.24.45,6,6,0,0,0-1.83,1.23,5.71,5.71,0,0,0-1.24,1.81,5.56,5.56,0,0,0-.45,2.24v19.25a5.56,5.56,0,0,0,.45,2.24,5.85,5.85,0,0,0,3.06,3.06,5.56,5.56,0,0,0,2.24.45h2.25a5.56,5.56,0,0,0,2.24-.45,5.7,5.7,0,0,0,1.81-1.24,6,6,0,0,0,1.23-1.83,5.56,5.56,0,0,0,.45-2.24Z"/><path class="cls-1" d="M164.35,389.56l7.69-27a1.14,1.14,0,0,1,1.09-.83h.95a1.14,1.14,0,0,1,1.09,1.46l-9.88,33.59a1.14,1.14,0,0,1-1.09.82h0a1.14,1.14,0,0,1-1.09-.82l-9.84-33.59a1.14,1.14,0,0,1,1.09-1.45h1a1.14,1.14,0,0,1,1.09.83l7.66,27"/><path class="cls-1" d="M186.29,396V363.23a1.54,1.54,0,0,1,1.54-1.54h17.1a1.54,1.54,0,0,1,1.54,1.54h0a1.54,1.54,0,0,1-1.54,1.54H189.52v13.33h15.12a1.54,1.54,0,0,1,1.54,1.54h0a1.54,1.54,0,0,1-1.54,1.54H189.52v13.3h15.42a1.54,1.54,0,0,1,1.54,1.54h0a1.54,1.54,0,0,1-1.54,1.54h-17.1A1.54,1.54,0,0,1,186.29,396Z"/><path class="cls-1" d="M235.1,396.82l-9.26-14.57h-4.43V396a1.57,1.57,0,0,1-1.57,1.57h-.08a1.57,1.57,0,0,1-1.57-1.57V363.26a1.57,1.57,0,0,1,1.57-1.57h9.8a8.59,8.59,0,0,1,3.43.69,8.8,8.8,0,0,1,4.69,4.7,8.68,8.68,0,0,1,.69,3.44v2.9a8.68,8.68,0,0,1-.69,3.44,8.8,8.8,0,0,1-4.69,4.7,8.57,8.57,0,0,1-3.43.69l8.19,12.89a1.57,1.57,0,0,1-1.33,2.42h0A1.57,1.57,0,0,1,235.1,396.82Zm0-26.3a5.56,5.56,0,0,0-.45-2.24,6,6,0,0,0-1.23-1.83,5.7,5.7,0,0,0-1.81-1.24,5.56,5.56,0,0,0-2.24-.45h-8v14.4h8a5.56,5.56,0,0,0,2.24-.45,5.7,5.7,0,0,0,1.81-1.24,6,6,0,0,0,1.23-1.83,5.56,5.56,0,0,0,.45-2.24Z"/><path class="cls-1" d="M254.76,364.77v13.33H267a1.54,1.54,0,0,1,1.54,1.54h0a1.54,1.54,0,0,1-1.54,1.54H254.76V396a1.54,1.54,0,0,1-1.54,1.54h-.15a1.54,1.54,0,0,1-1.54-1.54V363.23a1.54,1.54,0,0,1,1.54-1.54h17.1a1.54,1.54,0,0,1,1.54,1.54h0a1.54,1.54,0,0,1-1.54,1.54Z"/><path class="cls-1" d="M282.41,396V363.23a1.54,1.54,0,0,1,1.54-1.54h.15a1.54,1.54,0,0,1,1.54,1.54v31.24h12.19a1.54,1.54,0,0,1,1.54,1.54h0a1.54,1.54,0,0,1-1.54,1.54H283.95A1.54,1.54,0,0,1,282.41,396Z"/><path class="cls-1" d="M329.55,392.67a8.84,8.84,0,0,1-4.69,4.69,8.6,8.6,0,0,1-3.43.69h-2.55a8.67,8.67,0,0,1-3.44-.69,8.8,8.8,0,0,1-4.7-4.69,8.57,8.57,0,0,1-.69-3.43V370a8.58,8.58,0,0,1,.69-3.43,8.8,8.8,0,0,1,4.7-4.69,8.67,8.67,0,0,1,3.44-.69h2.55a8.6,8.6,0,0,1,3.43.69,8.84,8.84,0,0,1,4.69,4.69,8.61,8.61,0,0,1,.69,3.43v19.25A8.6,8.6,0,0,1,329.55,392.67ZM327,370a5.56,5.56,0,0,0-.45-2.24,5.76,5.76,0,0,0-3-3,5.57,5.57,0,0,0-2.24-.45H319a5.56,5.56,0,0,0-2.24.45,6,6,0,0,0-1.83,1.23,5.71,5.71,0,0,0-1.24,1.81,5.56,5.56,0,0,0-.45,2.24v19.25a5.56,5.56,0,0,0,.45,2.24,5.85,5.85,0,0,0,3.06,3.06A5.56,5.56,0,0,0,319,395h2.25a5.57,5.57,0,0,0,2.24-.45,5.72,5.72,0,0,0,1.81-1.24,6,6,0,0,0,1.23-1.83,5.56,5.56,0,0,0,.45-2.24Z"/><path class="cls-1" d="M351.41,388.95l6.69-26.44a1.08,1.08,0,0,1,1.05-.82h.11a1.08,1.08,0,0,1,1.05.82L367,388.81a1.56,1.56,0,0,1,0,.26l.09,1.19.11-1.2a1.56,1.56,0,0,1,0-.24l6.67-26a1.56,1.56,0,0,1,1.51-1.17h0a1.56,1.56,0,0,1,1.5,2l-8.75,33.1a1.08,1.08,0,0,1-1,.81h0a1.08,1.08,0,0,1-1.05-.81l-6.73-26a1.56,1.56,0,0,1,0-.28l-.09-1.26-.14,1.26a1.56,1.56,0,0,1-.05.27l-7.58,26.07a1.08,1.08,0,0,1-1,.78h0a1.08,1.08,0,0,1-1.05-.83l-8-33.11a1.56,1.56,0,0,1,1.51-1.92h0a1.56,1.56,0,0,1,1.51,1.17l6.73,26.09"/></g><g id="LOGO-2" data-name="LOGO"><path class="cls-2" d="M250,113A116.76,116.76,0,0,0,137.77,261.64c9.47-4.56,13.49-13.3,28.9-13.3,20.83,0,20.83,16,41.67,16s20.83-16,41.66-16,20.83,16,41.67,16,20.83-16,41.67-16c15.41,0,19.43,8.75,28.9,13.31A116.76,116.76,0,0,0,250,113Z"/><path class="cls-3" d="M125,286c20.83,0,20.83-16,41.67-16s20.83,16,41.67,16,20.83-16,41.66-16,20.83,16,41.67,16,20.83-16,41.67-16,20.83,16,41.67,16"/><path class="cls-3" d="M125,264c20.83,0,20.83-16,41.67-16s20.83,16,41.67,16,20.83-16,41.66-16,20.83,16,41.67,16,20.83-16,41.67-16,20.83,16,41.67,16"/><path class="cls-4" d="M250,112A116.76,116.76,0,0,0,137.77,260.64c9.47-4.56,13.49-13.3,28.9-13.3,20.83,0,20.83,16,41.67,16s20.83-16,41.66-16,20.83,16,41.67,16,20.83-16,41.67-16c15.41,0,19.43,8.75,28.9,13.31A116.76,116.76,0,0,0,250,112Z"/></g></g></svg>